{"glyphs":{"0":{"ha":1033,"x_min":15,"x_max":1017,"o":"m 15 488 q 55 678 15 589 q 162 835 94 768 q 320 940 229 901 q 515 979 411 979 q 711 940 619 979 q 870 835 803 901 q 977 678 938 768 q 1017 488 1017 589 q 977 297 1017 386 q 870 140 938 207 q 711 35 803 74 q 515 -3 619 -3 q 320 35 411 -3 q 162 140 229 74 q 55 297 94 207 q 15 488 15 386 m 57 479 q 93 306 57 388 q 191 163 129 224 q 336 66 253 101 q 514 31 419 31 q 692 66 608 31 q 839 163 776 101 q 938 306 901 224 q 974 479 974 388 q 938 654 974 572 q 839 797 901 736 q 692 894 776 858 q 514 929 608 929 q 336 894 419 929 q 191 797 253 858 q 93 654 129 736 q 57 479 57 572 m 249 479 q 269 581 249 533 q 326 663 290 628 q 411 719 363 699 q 514 740 460 740 q 617 719 568 740 q 703 663 667 699 q 760 581 739 628 q 782 479 782 533 q 760 378 782 425 q 703 295 739 331 q 617 240 667 260 q 514 219 568 219 q 411 240 460 219 q 326 295 363 260 q 269 378 290 331 q 249 479 249 425 m 296 479 q 313 396 296 435 q 360 328 331 357 q 430 282 390 299 q 514 265 469 265 q 599 282 560 265 q 669 328 639 299 q 717 396 700 357 q 735 479 735 435 q 717 563 735 524 q 669 631 700 601 q 599 677 639 660 q 514 694 560 694 q 430 677 469 694 q 360 631 390 660 q 313 563 331 601 q 296 479 296 524 m 318 479 q 333 555 318 519 q 376 616 349 590 q 438 657 403 642 q 514 672 474 672 q 590 657 554 672 q 653 616 626 642 q 697 555 681 590 q 713 479 713 519 q 697 404 713 439 q 653 344 681 369 q 590 303 626 318 q 514 288 554 288 q 438 303 474 288 q 376 344 403 318 q 333 404 349 369 q 318 479 318 439 m 368 479 q 380 424 368 450 q 411 378 392 397 q 458 347 431 358 q 514 336 485 336 q 572 347 544 336 q 619 378 599 358 q 651 424 639 397 q 663 479 663 450 q 651 535 663 508 q 619 581 639 561 q 572 613 599 601 q 514 624 544 624 q 458 613 485 624 q 411 581 431 601 q 380 535 392 561 q 368 479 368 508 z "},"1":{"ha":385,"x_min":24,"x_max":357,"o":"m 108 946 l 357 974 l 357 0 l 81 0 l 81 543 l 24 543 l 108 946 m 88 592 l 129 592 l 129 49 l 308 49 l 308 922 l 143 903 l 88 592 z "},"2":{"ha":1060,"x_min":19,"x_max":1039,"o":"m 446 483 l 560 483 l 560 301 l 1031 301 l 1031 0 l 21 0 l 446 483 m 511 435 l 468 435 l 142 49 l 982 49 l 982 253 l 511 253 l 511 435 m 19 499 q 29 593 19 542 q 63 697 39 644 q 124 799 86 750 q 219 887 163 849 q 352 948 275 925 q 529 971 429 971 q 708 948 631 971 q 843 887 786 925 q 938 799 900 849 q 997 698 975 750 q 1029 594 1019 646 q 1039 499 1039 542 l 744 499 q 724 611 744 569 q 672 676 703 653 q 602 706 640 699 q 529 713 564 713 q 472 703 508 713 q 399 671 435 694 q 338 606 364 647 q 313 499 313 564 l 19 499 m 256 547 q 324 672 279 628 q 415 735 369 715 q 529 761 469 758 q 644 735 590 758 q 733 672 689 715 q 794 547 776 628 l 988 547 q 951 676 976 621 q 892 771 926 731 q 817 838 857 811 q 738 882 778 865 q 529 922 643 921 q 328 886 421 924 q 248 843 288 869 q 173 776 208 817 q 110 678 138 735 q 68 547 82 622 l 256 547 z "},"3":{"ha":1025,"x_min":13,"x_max":1021,"o":"m 13 264 l 554 264 q 621 280 586 264 q 685 323 656 296 q 733 387 714 350 q 751 465 751 424 l 1021 465 q 981 280 1021 365 q 876 133 940 194 q 730 35 811 71 q 567 0 649 0 l 13 0 l 13 264 m 786 426 q 774 381 786 414 q 733 312 763 347 q 655 249 704 276 q 531 222 606 222 l 58 221 l 57 40 l 518 40 q 667 62 601 40 q 783 119 733 83 q 868 197 833 154 q 925 283 903 240 q 957 364 947 326 q 967 426 967 401 l 786 426 m 74 746 l 467 746 l 469 517 l 581 515 l 950 846 l 951 922 l 74 922 l 74 746 m 28 947 l 56 974 l 968 974 l 993 949 l 993 828 l 599 476 l 436 478 l 429 483 l 428 697 l 63 699 l 28 728 l 28 947 z "},"4":{"ha":1006,"x_min":21,"x_max":978,"o":"m 621 321 l 63 321 l 64 397 l 433 728 l 544 726 l 547 497 l 621 497 l 621 321 m 667 515 l 632 544 l 586 546 l 585 760 l 578 765 l 415 767 l 21 415 l 21 294 l 46 269 l 639 269 l 667 296 l 667 515 m 696 926 q 699 933 694 925 q 710 949 704 940 q 725 972 715 958 l 944 972 l 978 926 l 978 46 l 947 0 l 728 0 l 696 46 l 696 486 l 696 926 m 746 46 l 929 46 l 929 926 l 746 926 l 746 46 z "},"5":{"ha":1042,"x_min":28,"x_max":1021,"o":"m 28 264 l 554 264 q 621 280 586 264 q 685 323 656 296 q 733 387 714 350 q 751 465 751 424 l 1021 465 q 981 280 1021 365 q 876 133 940 194 q 730 35 811 71 q 567 0 649 0 l 28 0 l 28 264 m 800 417 q 786 371 800 404 q 741 303 772 338 q 658 242 710 269 q 531 215 606 215 l 76 214 l 76 49 l 518 49 q 668 69 601 49 q 785 123 735 90 q 872 197 836 156 q 929 278 907 238 q 962 356 951 319 q 972 417 972 392 l 800 417 m 944 917 l 76 917 l 76 613 l 336 613 l 336 746 l 944 746 l 944 917 m 993 728 l 958 697 l 385 697 l 385 569 l 378 564 l 28 564 l 28 949 l 53 972 l 965 972 l 993 947 l 993 728 z "},"6":{"ha":951,"x_min":29,"x_max":924,"o":"m 796 707 l 29 707 q 52 797 29 750 q 116 883 75 844 q 212 947 157 922 q 329 972 267 972 l 796 972 l 796 707 m 322 929 q 225 904 268 929 q 152 848 182 879 q 107 790 122 817 q 92 757 92 763 l 92 750 l 746 750 l 746 928 l 457 928 q 322 929 386 928 m 29 656 l 683 656 q 867 608 811 656 q 924 482 924 561 l 924 290 q 913 161 924 215 q 871 71 901 107 q 785 17 840 35 q 643 0 731 0 l 324 0 q 174 17 232 0 q 85 74 117 35 q 41 176 53 114 q 29 328 29 238 l 29 656 m 92 311 q 117 159 92 213 q 178 81 142 106 q 254 53 214 57 q 326 49 294 49 l 640 49 q 742 64 701 49 q 809 102 783 79 q 849 153 835 125 q 868 208 863 182 q 874 257 874 235 q 875 289 875 279 l 875 479 q 867 521 875 503 q 844 552 858 539 q 814 574 831 565 q 779 590 797 583 q 685 607 738 604 l 388 607 q 278 607 332 607 q 183 607 225 607 q 117 607 142 607 q 92 607 92 607 l 92 311 m 190 324 q 198 365 190 349 q 235 389 206 381 q 322 401 264 397 q 479 404 379 404 q 620 401 564 404 q 710 389 676 397 q 756 365 743 381 q 769 324 769 349 q 759 283 769 299 q 718 260 749 268 q 630 251 688 253 q 479 250 572 250 q 322 252 379 250 q 235 262 264 254 q 198 284 206 269 q 190 324 190 299 m 247 326 q 253 313 247 318 q 282 304 258 307 q 352 301 306 301 q 482 300 399 300 q 609 301 563 300 q 679 304 656 301 q 710 313 703 307 q 717 326 717 318 q 708 340 717 335 q 674 349 699 346 q 603 353 649 353 q 482 354 557 354 q 350 353 397 354 q 280 349 303 353 q 252 340 257 346 q 247 326 247 335 z "},"7":{"ha":946,"x_min":18,"x_max":925,"o":"m 61 692 q 55 695 61 690 q 40 706 49 700 q 18 721 31 711 l 18 940 l 61 974 l 882 974 l 925 943 l 856 724 l 815 692 l 438 692 l 61 692 m 808 742 l 869 925 l 61 925 l 61 742 l 808 742 m 806 678 l 821 639 l 525 0 l 204 0 l 185 25 q 340 351 272 207 q 397 471 369 413 q 447 575 425 529 q 496 678 472 629 l 806 678 m 250 49 l 496 49 l 764 629 l 531 629 l 250 49 z "},"8":{"ha":954,"x_min":19,"x_max":929,"o":"m 29 410 q 40 473 29 436 q 81 544 51 510 q 161 603 110 579 q 293 628 213 628 l 683 628 q 792 609 747 628 q 867 560 838 590 q 910 490 896 529 q 924 413 924 451 l 924 290 q 858 70 924 140 q 643 0 792 0 l 324 0 q 194 15 249 0 q 102 65 139 29 q 47 160 65 101 q 29 310 29 219 l 29 410 m 92 310 q 117 158 92 211 q 178 81 142 106 q 254 53 214 57 q 326 49 294 49 l 640 49 q 742 64 701 49 q 809 102 783 79 q 849 153 835 125 q 868 208 863 182 q 874 257 874 235 q 875 289 875 279 l 875 410 q 845 503 875 469 q 779 554 815 538 q 685 579 738 574 q 571 582 631 581 q 454 583 519 583 q 319 581 389 583 q 268 578 306 582 q 192 558 231 575 q 122 506 153 540 q 92 410 92 471 l 92 310 m 190 324 q 198 365 190 349 q 235 389 206 381 q 322 401 264 397 q 479 404 379 404 q 620 401 564 404 q 710 389 676 397 q 756 365 743 381 q 769 324 769 349 q 759 283 769 299 q 718 260 749 268 q 630 251 688 253 q 479 250 572 250 q 322 252 379 250 q 235 262 264 254 q 198 284 206 269 q 190 324 190 299 m 247 326 q 253 313 247 318 q 282 304 258 307 q 352 301 306 301 q 482 300 399 300 q 609 301 563 300 q 679 304 656 301 q 710 313 703 307 q 717 326 717 318 q 708 340 717 335 q 674 349 699 346 q 603 353 649 353 q 482 354 557 354 q 350 353 397 354 q 280 349 303 353 q 252 340 257 346 q 247 326 247 335 m 19 651 q 40 766 19 708 q 113 869 61 824 q 252 944 164 915 q 474 972 340 972 q 699 944 611 972 q 838 870 788 915 q 909 767 889 825 q 929 651 929 710 l 667 651 q 648 692 667 675 q 601 721 629 710 q 539 738 574 732 q 474 743 504 743 q 422 739 454 743 q 358 724 390 735 q 303 696 326 714 q 281 651 281 678 l 19 651 m 63 694 q 95 774 72 740 q 149 833 118 808 q 215 875 179 858 q 288 903 251 892 q 474 929 372 928 q 660 906 575 931 q 732 878 696 894 q 799 836 768 861 q 851 776 829 811 q 883 694 874 742 l 711 694 q 663 751 701 731 q 583 779 625 771 q 474 790 533 789 q 382 779 426 789 q 302 751 343 771 q 231 694 261 731 l 63 694 z "},"9":{"ha":943,"x_min":24,"x_max":918,"o":"m 151 265 l 918 265 q 895 174 918 221 q 831 89 872 128 q 735 25 790 50 q 618 0 681 0 l 151 0 l 151 265 m 625 43 q 722 68 679 43 q 795 124 765 93 q 840 183 825 156 q 856 215 856 210 l 856 222 l 201 222 l 201 44 q 354 44 279 44 q 490 43 429 43 l 625 43 m 918 317 l 264 317 q 80 364 136 317 q 24 490 24 411 l 24 682 q 35 811 24 757 q 76 901 46 865 q 162 955 107 938 q 304 972 217 972 l 624 972 q 773 955 715 972 q 863 898 831 938 q 906 796 894 858 q 918 644 918 733 l 918 317 m 856 661 q 831 813 856 760 q 769 891 806 867 q 692 919 733 915 q 621 924 651 924 l 307 924 q 205 908 246 924 q 138 870 164 893 q 99 819 113 847 q 79 764 85 790 q 73 715 74 738 q 72 683 72 693 l 72 493 q 101 418 72 444 q 167 381 131 392 q 263 365 208 365 l 558 365 l 856 365 l 856 661 m 757 649 q 749 608 757 624 q 713 583 742 592 q 626 572 683 575 q 468 568 568 568 q 326 572 382 568 q 238 583 271 575 q 191 608 204 592 q 178 649 178 624 q 188 689 178 674 q 229 712 199 704 q 317 721 260 719 q 468 722 374 722 q 626 720 568 722 q 713 710 683 718 q 749 688 742 703 q 757 649 757 674 m 700 646 q 694 660 700 654 q 665 668 689 665 q 595 672 642 671 q 465 672 549 672 q 338 672 385 672 q 267 668 292 671 q 237 660 243 665 q 231 646 231 654 q 240 632 231 638 q 274 623 249 626 q 344 619 299 619 q 465 618 390 618 q 597 619 550 618 q 667 623 644 619 q 695 632 690 626 q 700 646 700 638 z "}," ":{"ha":694,"x_min":0,"x_max":0,"o":""},"C":{"ha":868,"x_min":10,"x_max":854,"o":"m 854 0 l 467 0 q 303 38 385 0 q 158 141 222 75 q 53 294 93 207 q 13 482 13 382 q 40 644 10 558 q 130 802 71 731 q 274 921 189 874 q 464 968 358 968 l 853 968 l 853 700 l 479 700 q 404 681 440 700 q 341 633 368 663 q 298 563 314 603 q 282 482 282 524 q 301 401 282 440 q 349 331 319 361 q 413 283 378 301 q 479 264 447 264 l 854 264 l 854 0 m 457 924 q 339 897 407 924 q 208 815 271 869 q 102 679 146 761 q 58 488 58 597 q 106 288 61 379 q 153 210 124 249 q 228 137 183 171 q 333 78 272 103 q 474 40 393 53 l 810 40 l 808 221 l 461 222 q 333 277 378 235 q 267 365 288 319 q 239 485 242 419 q 256 565 239 521 q 303 649 272 610 q 374 716 333 689 q 464 743 415 743 l 810 744 l 808 924 l 457 924 z "},"T":{"ha":1069,"x_min":0,"x_max":1069,"o":"m 0 951 q 3 953 0 950 q 11 961 7 957 l 22 972 l 358 972 l 389 940 l 389 736 l 353 706 l 29 707 l 0 726 l 0 951 m 47 750 l 335 750 l 335 928 l 47 928 l 47 750 m 1069 704 q 1055 703 1069 704 q 1017 703 1040 703 q 965 703 994 703 q 904 703 935 703 q 740 704 832 703 l 722 685 l 721 33 l 689 1 l 471 0 l 439 31 l 440 715 q 467 812 440 765 q 531 894 493 858 q 612 951 569 929 q 688 972 654 972 l 1069 972 l 1069 928 l 715 926 q 615 898 657 922 q 544 840 572 874 q 502 767 515 806 q 489 699 489 729 l 489 44 l 671 43 l 672 683 q 677 705 672 693 q 690 726 682 717 q 709 742 699 736 q 732 749 719 749 l 1069 749 l 1069 704 z "},"R":{"ha":1063,"x_min":0,"x_max":1046,"o":"m 0 972 l 746 972 q 863 947 808 972 q 959 883 918 922 q 1023 797 1000 844 q 1046 707 1046 750 l 0 707 l 0 750 l 983 750 l 983 757 q 968 790 983 763 q 923 848 953 817 q 850 904 893 879 q 753 929 807 929 q 383 928 547 928 l 0 928 l 0 972 m 4 588 q 8 592 3 586 q 18 604 13 597 q 33 621 24 611 l 251 621 l 285 585 l 285 36 l 254 -1 l 36 1 l 4 31 l 4 310 l 4 588 m 53 46 l 236 46 l 236 576 l 53 576 l 53 46 m 1042 621 q 1040 602 1042 621 q 1028 555 1038 583 q 999 492 1018 526 q 947 428 981 458 q 860 377 913 399 q 735 351 808 356 l 1035 54 l 1035 0 l 729 0 l 335 406 l 335 588 l 367 622 l 706 622 q 830 622 769 622 q 938 622 890 622 q 1015 621 986 621 q 1042 621 1043 621 m 385 421 l 754 44 l 974 44 l 625 394 l 729 394 q 858 426 808 397 q 936 488 907 454 q 986 576 969 526 l 685 576 q 574 576 628 576 q 478 576 521 576 q 410 576 436 576 q 385 576 385 576 l 385 421 z "},"P":{"ha":1063,"x_min":0,"x_max":1046,"o":"m 0 972 l 746 972 q 863 947 808 972 q 959 883 918 922 q 1023 797 1000 844 q 1046 707 1046 750 l 0 707 l 0 750 l 983 750 l 983 757 q 968 790 983 763 q 923 848 953 817 q 850 904 893 879 q 753 929 807 929 q 383 928 547 928 l 0 928 l 0 972 m 4 588 q 8 592 3 586 q 18 604 13 597 q 33 621 24 611 l 251 621 l 285 585 l 285 36 l 254 -1 l 36 1 l 4 31 l 4 310 l 4 588 m 53 46 l 236 46 l 236 576 l 53 576 l 53 46 m 1042 621 q 1040 602 1042 621 q 1028 555 1038 583 q 999 492 1018 526 q 947 428 981 458 q 860 377 913 399 q 735 351 808 356 q 542 351 636 351 q 367 351 447 350 l 335 386 l 335 588 l 367 622 l 706 622 q 830 622 769 622 q 938 622 890 622 q 1015 621 986 621 q 1042 621 1043 621 m 385 394 l 625 394 l 729 394 q 858 426 808 397 q 936 488 907 454 q 986 576 969 526 l 685 576 q 574 576 628 576 q 478 576 521 576 q 410 576 436 576 q 385 576 385 576 l 385 394 z "},"H":{"ha":876,"x_min":19,"x_max":857,"o":"m 857 972 l 857 0 l 590 0 l 590 353 l 288 353 l 288 0 l 19 0 l 19 618 l 590 618 l 590 972 l 857 972 m 633 928 l 633 576 l 63 576 l 63 43 l 243 43 l 243 397 l 633 397 l 633 44 l 814 44 l 814 928 l 633 928 m 21 704 q 20 724 21 704 q 23 773 19 743 q 35 838 26 803 q 65 902 44 872 q 121 951 86 932 q 208 971 156 971 l 286 971 l 286 739 l 249 703 l 133 703 q 92 703 113 703 q 55 703 71 703 q 29 703 39 703 q 21 704 19 704 m 244 935 l 214 935 q 163 926 185 935 q 126 904 142 918 q 99 874 110 890 q 82 839 89 857 q 64 743 67 796 l 154 743 l 244 743 l 244 935 z "},"J":{"ha":664,"x_min":15,"x_max":644,"o":"m 42 269 l 222 269 q 344 268 279 269 l 363 288 l 364 939 l 396 968 l 614 968 l 644 942 l 644 257 q 618 160 644 207 q 553 78 592 114 q 473 22 515 43 q 397 0 431 0 l 39 0 l 15 24 l 15 44 l 369 46 q 470 74 428 50 q 541 133 513 99 q 583 204 569 167 q 596 274 596 242 l 596 922 l 414 922 l 413 289 q 408 267 413 279 q 394 246 403 256 q 376 230 386 236 q 353 224 365 224 l 61 224 l 61 44 l 15 44 l 15 243 l 42 269 z "},"I":{"ha":317,"x_min":17,"x_max":300,"o":"m 18 926 q 22 933 17 925 q 32 949 26 940 q 47 972 38 958 l 267 972 l 300 926 l 300 46 l 269 0 l 50 0 l 18 46 l 18 486 l 18 926 m 68 46 l 251 46 l 251 926 l 68 926 l 68 46 z "},"Q":{"ha":1082,"x_min":19,"x_max":1058,"o":"m 253 486 q 274 588 253 540 q 331 670 294 635 q 417 726 368 706 q 521 746 465 746 q 625 726 576 746 q 710 670 674 706 q 768 588 747 635 q 789 486 789 540 q 768 385 789 432 q 710 302 747 338 q 625 247 674 267 q 521 226 576 226 q 417 247 465 226 q 331 302 368 267 q 274 385 294 338 q 253 486 253 432 m 299 486 q 316 402 299 442 q 364 333 333 363 q 435 288 394 304 q 521 271 475 271 q 608 288 567 271 q 678 333 649 304 q 726 402 708 363 q 743 486 743 442 q 726 570 743 531 q 678 639 708 610 q 608 685 649 668 q 521 701 567 701 q 435 685 475 701 q 364 639 394 668 q 316 570 333 610 q 299 486 299 531 m 19 486 q 59 675 19 586 q 167 830 99 764 q 326 934 235 896 q 521 972 417 972 q 680 947 604 972 q 818 876 756 921 q 862 842 842 861 q 901 801 882 822 l 922 776 q 996 642 969 715 q 1022 486 1022 568 q 983 297 1022 386 q 875 142 943 208 q 716 38 807 76 q 521 0 625 0 q 326 38 417 0 q 167 142 235 76 q 59 297 99 208 q 19 486 19 386 m 67 486 q 103 314 67 394 q 200 174 139 233 q 344 81 261 115 q 521 46 426 46 q 698 81 615 46 q 842 174 781 115 q 940 314 904 233 q 975 486 975 394 q 940 658 975 578 q 842 798 904 739 q 698 892 781 857 q 521 926 615 926 q 344 892 426 926 q 200 798 261 857 q 103 658 139 739 q 67 486 67 578 m 769 1 q 764 6 767 3 l 753 17 q 736 32 746 22 q 785 53 754 36 q 848 96 815 69 q 912 156 881 122 q 964 229 943 190 l 1058 163 l 1058 24 l 1035 1 l 769 1 m 1021 89 l 1021 142 l 976 171 q 972 158 979 168 q 953 134 965 149 q 924 103 940 119 q 891 73 907 88 q 862 49 875 58 q 842 38 849 39 q 872 38 843 38 q 933 38 900 38 q 993 38 965 38 q 1021 38 1021 38 l 1021 89 z "},"L":{"ha":667,"x_min":15,"x_max":644,"o":"m 644 243 l 644 44 l 599 44 l 599 224 l 307 224 q 284 230 294 224 q 265 246 274 236 q 252 267 257 256 q 247 289 247 279 l 246 922 l 64 922 l 64 274 q 77 204 64 242 q 119 133 90 167 q 190 74 147 99 q 290 46 232 50 l 644 44 l 644 24 l 621 0 l 263 0 q 187 22 229 0 q 106 78 144 43 q 42 160 68 114 q 15 257 15 207 l 15 942 l 46 968 l 264 968 l 296 939 l 297 288 l 315 268 q 438 269 381 269 l 618 269 l 644 243 z "},"F":{"ha":946,"x_min":18,"x_max":925,"o":"m 61 694 q 55 698 61 693 q 40 708 49 703 q 18 724 31 714 l 18 943 l 61 976 l 882 976 l 925 946 l 925 726 l 882 694 l 471 694 l 61 694 m 882 744 l 882 928 l 61 928 l 61 744 l 882 744 m 831 622 q 798 622 831 622 q 712 623 765 622 q 589 624 658 624 q 447 624 519 624 l 61 624 l 18 589 l 18 33 l 61 0 l 299 0 l 342 32 l 340 353 l 535 353 q 656 378 606 357 q 738 430 706 400 q 790 494 771 460 q 817 556 808 528 q 828 603 826 585 q 831 622 831 622 m 61 578 q 92 578 61 578 q 172 578 122 578 q 287 578 222 578 q 418 578 351 578 l 776 578 q 728 489 760 528 q 652 427 700 456 q 529 396 604 399 l 297 396 l 299 44 l 61 44 l 61 578 z "},"E":{"ha":951,"x_min":18,"x_max":925,"o":"m 61 692 q 55 695 61 690 q 40 706 49 700 q 18 721 31 711 l 18 940 l 61 974 l 882 974 l 925 943 l 925 724 l 882 692 l 471 692 l 61 692 m 882 742 l 882 925 l 61 925 l 61 742 l 882 742 m 831 619 q 798 619 831 619 q 712 620 765 619 q 589 621 658 621 q 447 621 519 621 l 61 621 l 18 586 l 18 31 l 61 -3 l 882 -3 l 925 33 l 925 213 l 882 258 l 340 258 l 340 350 l 535 350 q 656 376 606 354 q 738 427 706 397 q 790 491 771 457 q 817 553 808 525 q 828 601 826 582 q 831 619 831 619 m 61 575 q 92 575 61 575 q 172 575 122 575 q 287 575 222 575 q 418 575 351 575 l 776 575 q 728 486 760 525 q 652 424 700 453 q 529 393 604 396 l 297 393 l 297 213 l 882 213 l 882 42 l 61 42 l 61 575 z "},"D":{"ha":885,"x_min":19,"x_max":864,"o":"m 19 972 l 289 972 l 289 286 l 19 286 l 19 972 m 64 331 l 246 331 l 246 929 l 64 929 l 64 331 m 19 264 l 394 264 q 475 283 439 264 q 538 331 511 301 q 578 401 564 361 q 592 482 592 440 q 578 563 592 524 q 538 634 564 603 q 475 684 511 665 q 394 703 439 703 l 325 703 l 325 972 l 410 972 q 600 924 515 972 q 744 804 685 876 q 833 645 803 732 q 861 482 864 558 q 821 294 861 382 q 716 141 781 207 q 570 38 651 75 q 407 0 489 0 l 19 0 l 19 264 m 369 926 l 368 747 l 410 747 q 507 719 465 747 q 577 651 549 692 q 620 566 606 611 q 635 485 635 521 q 613 364 636 419 q 587 317 603 340 q 547 274 571 294 q 490 240 522 254 q 413 222 457 226 l 65 221 l 64 40 l 400 40 q 537 78 478 53 q 640 137 596 103 q 715 210 685 171 q 764 288 744 249 q 815 488 810 379 q 772 680 815 597 q 665 817 728 763 q 535 899 603 872 q 417 926 467 926 l 369 926 z "},"ÿ":{"ha":1157,"x_min":0,"x_max":0,"o":""},"M":{"ha":1042,"x_min":14,"x_max":1025,"o":"m 242 46 l 242 439 l 471 442 l 472 553 l 142 922 l 65 924 l 65 46 l 242 46 m 40 0 l 14 28 l 14 940 l 39 965 l 160 965 l 510 571 l 510 408 l 504 401 l 290 400 l 289 35 l 260 0 l 40 0 m 974 46 l 974 924 l 897 922 l 567 553 l 568 442 l 797 439 l 797 46 l 974 46 m 779 0 l 750 35 l 749 400 l 535 401 l 529 408 l 529 571 l 879 965 l 1000 965 l 1025 940 l 1025 28 l 999 0 l 779 0 z "},"W":{"ha":1056,"x_min":25,"x_max":1036,"o":"m 76 919 l 76 42 l 153 43 l 483 413 l 482 524 l 253 526 l 253 919 l 76 919 m 271 965 l 300 931 l 301 565 l 515 564 l 521 557 l 521 394 l 171 0 l 50 0 l 25 25 l 25 938 l 51 965 l 271 965 m 808 919 l 808 526 l 579 524 l 578 413 l 908 43 l 985 42 l 985 919 l 808 919 m 1010 965 l 1036 938 l 1036 25 l 1011 0 l 890 0 l 540 394 l 540 557 l 546 564 l 760 565 l 761 931 l 790 965 l 1010 965 z "},"A":{"ha":863,"x_min":14,"x_max":844,"o":"m 244 46 l 385 421 l 469 421 l 513 294 l 681 296 l 471 932 l 394 933 l 65 46 l 244 46 m 40 0 l 14 28 l 361 950 l 390 975 l 478 975 l 503 950 l 729 276 l 707 251 l 482 251 l 442 379 l 413 379 l 278 0 l 40 0 m 372 235 q 385 235 371 235 q 423 235 399 235 q 478 236 447 236 q 540 236 508 236 l 713 236 l 750 224 l 844 0 l 643 0 q 522 23 571 4 q 444 67 474 42 q 399 123 414 93 q 378 177 385 153 q 372 218 372 201 q 372 235 372 235 m 719 196 q 706 196 719 196 q 671 196 693 196 q 622 196 649 196 q 565 196 594 196 l 413 196 q 454 118 425 153 q 526 64 479 89 q 649 36 572 39 l 785 36 l 719 196 z "},"G":{"ha":876,"x_min":10,"x_max":854,"o":"m 378 513 q 378 496 378 513 q 384 455 378 479 q 405 401 390 431 q 449 345 419 371 q 528 301 479 319 q 649 278 576 282 l 850 278 l 756 501 l 718 514 l 546 514 q 483 514 514 514 q 428 513 453 514 q 390 513 404 513 q 378 513 376 513 m 790 314 l 654 314 q 531 342 578 317 q 460 396 485 367 q 418 474 431 431 l 571 474 q 627 474 600 474 q 676 474 654 474 q 712 474 699 474 q 725 474 725 474 l 790 314 m 854 0 l 467 0 q 303 38 385 0 q 158 141 222 75 q 53 294 93 207 q 13 482 13 382 q 40 644 10 558 q 130 802 71 731 q 274 921 189 874 q 464 968 358 968 l 853 968 l 853 700 l 479 700 q 404 681 440 700 q 341 633 368 663 q 298 563 314 603 q 282 482 282 524 q 301 401 282 440 q 349 331 319 361 q 413 283 378 301 q 479 264 447 264 l 854 264 l 854 0 m 457 924 q 339 897 407 924 q 208 815 271 869 q 102 679 146 761 q 58 488 58 597 q 106 288 61 379 q 153 210 124 249 q 228 137 183 171 q 333 78 272 103 q 474 40 393 53 l 810 40 l 808 221 l 461 222 q 333 277 378 235 q 267 365 288 319 q 239 485 242 419 q 256 565 239 521 q 303 649 272 610 q 374 716 333 689 q 464 743 415 743 l 810 744 l 808 924 l 457 924 z "},"B":{"ha":1085,"x_min":29,"x_max":1046,"o":"m 1042 621 q 1040 602 1042 621 q 1028 555 1038 583 q 999 492 1018 526 q 947 428 981 458 q 860 377 913 399 q 735 351 808 356 q 885 294 818 333 q 940 255 913 278 q 988 203 967 232 q 1022 137 1008 174 q 1035 54 1035 100 l 1035 0 l 729 0 l 29 -1 l 29 622 l 318 622 l 321 358 l 547 358 q 500 369 525 360 q 451 394 478 378 q 396 439 424 410 q 368 474 381 449 q 349 529 357 493 q 340 622 340 565 l 367 622 l 706 622 q 830 622 769 622 q 938 622 890 622 q 1015 621 986 621 q 1042 621 1043 621 m 385 576 q 394 519 385 544 q 417 476 403 494 q 450 443 432 457 q 488 421 468 429 q 592 394 533 400 l 592 319 l 386 317 l 275 317 l 274 578 l 79 576 l 79 44 l 754 44 l 988 44 q 971 117 988 82 q 927 183 954 153 q 867 239 900 214 q 799 282 833 264 q 734 310 765 300 q 681 319 703 319 l 681 394 q 842 422 782 394 q 935 485 903 450 q 986 576 972 525 l 685 576 q 574 576 628 576 q 478 576 521 576 q 410 576 436 576 q 385 576 385 576 m 29 972 l 746 972 q 863 947 808 972 q 959 883 918 922 q 1023 797 1000 844 q 1046 707 1046 750 l 29 707 l 29 972 m 753 929 q 493 928 619 928 l 79 928 l 79 750 l 983 750 l 983 757 q 968 790 983 763 q 923 848 953 817 q 850 904 893 879 q 753 929 807 929 z "},":":{"ha":328,"x_min":28,"x_max":297,"o":"m 297 85 l 28 85 l 28 354 l 297 354 l 297 85 m 253 311 l 71 311 l 71 129 l 253 129 l 253 311 m 297 474 l 28 474 l 28 743 l 297 743 l 297 474 m 253 700 l 71 700 l 71 518 l 253 518 l 253 700 z "},"=":{"ha":740,"x_min":28,"x_max":714,"o":"m 714 488 l 28 488 l 28 715 l 714 715 l 714 488 m 669 672 l 71 672 l 71 532 l 669 532 l 669 672 m 714 210 l 28 210 l 28 438 l 714 438 l 714 210 m 669 394 l 71 394 l 71 254 l 669 254 l 669 394 z "},"U":{"ha":863,"x_min":24,"x_max":835,"o":"m 325 268 l 533 268 l 551 288 l 553 939 l 585 971 l 803 972 l 835 942 l 833 257 q 807 160 833 207 q 742 78 781 114 q 662 22 704 43 q 586 0 619 0 l 272 0 q 197 22 239 0 q 116 78 154 43 q 51 160 78 114 q 25 257 25 207 l 24 942 l 56 972 l 274 971 l 306 939 l 307 288 l 325 268 m 558 46 q 659 74 617 50 q 730 133 701 99 q 772 204 758 167 q 785 274 785 242 l 785 928 l 603 929 l 601 289 q 597 267 601 279 q 583 246 592 256 q 565 230 575 236 q 542 224 554 224 l 317 224 q 294 230 304 224 q 275 246 283 236 q 262 267 267 256 q 257 289 257 279 l 256 929 l 74 928 l 74 274 q 87 204 74 242 q 128 133 100 167 q 199 74 157 99 q 300 46 242 50 l 558 46 z "},"V":{"ha":868,"x_min":14,"x_max":844,"o":"m 65 929 l 394 42 l 471 43 l 681 679 l 513 681 l 469 554 l 385 554 l 244 929 l 65 929 m 278 975 l 413 596 l 442 596 l 482 724 l 707 724 l 729 699 l 503 25 l 478 0 l 390 0 l 361 25 l 14 947 l 40 975 l 278 975 m 483 740 q 486 758 483 740 q 497 801 489 775 q 523 857 506 826 q 570 913 540 888 q 645 956 600 939 q 754 975 690 974 l 844 975 l 750 751 l 713 739 l 596 739 q 553 739 574 739 q 517 739 532 739 q 492 740 501 739 q 483 740 482 740 m 785 939 l 760 939 q 644 911 688 936 q 576 857 600 886 q 538 779 549 822 l 628 779 l 719 779 l 785 939 z "},"S":{"ha":1042,"x_min":13,"x_max":1021,"o":"m 13 264 l 554 264 q 621 280 586 264 q 685 323 656 296 q 733 387 714 350 q 751 465 751 424 l 1021 465 q 981 280 1021 365 q 876 133 940 194 q 730 35 811 71 q 567 0 649 0 l 13 0 l 13 264 m 786 426 q 774 381 786 414 q 733 312 763 347 q 655 249 704 276 q 531 222 606 222 l 58 221 l 57 40 l 518 40 q 667 62 601 40 q 783 119 733 83 q 868 197 833 154 q 925 283 903 240 q 957 364 947 326 q 967 426 967 401 l 786 426 m 1021 706 l 479 706 q 413 690 447 706 q 349 647 378 674 q 301 583 319 619 q 282 504 282 546 l 13 504 q 53 690 13 604 q 158 837 93 775 q 303 934 222 899 q 467 969 385 969 l 1021 969 l 1021 706 m 247 543 q 259 589 247 556 q 300 658 271 622 q 378 720 329 693 q 503 747 428 747 l 975 749 l 976 929 l 515 929 q 365 908 431 929 q 250 851 300 886 q 165 772 200 815 q 108 686 131 729 q 76 605 86 643 q 67 543 67 567 l 247 543 z "},"K":{"ha":885,"x_min":19,"x_max":885,"o":"m 19 972 l 289 972 l 289 703 l 19 703 l 19 972 m 64 747 l 246 747 l 246 929 l 64 929 l 64 747 m 885 972 l 675 549 l 675 444 l 885 0 l 590 0 l 396 353 l 288 353 l 288 0 l 19 0 l 19 618 l 396 618 l 590 972 l 885 972 m 619 928 l 425 576 l 63 576 l 63 43 l 243 43 l 243 397 l 425 397 l 619 44 l 808 44 l 621 444 l 619 549 l 808 928 l 619 928 z "},"Y":{"ha":876,"x_min":24,"x_max":844,"o":"m 72 929 l 319 417 l 319 42 l 546 43 l 546 415 l 674 679 l 513 681 l 469 554 l 385 554 l 244 929 l 72 929 m 278 975 l 413 596 l 442 596 l 482 724 l 707 724 l 729 699 l 589 414 l 589 0 l 279 0 l 279 414 l 24 928 l 40 975 l 278 975 m 483 740 q 486 758 483 740 q 497 801 489 775 q 523 857 506 826 q 570 913 540 888 q 645 956 600 939 q 754 975 690 974 l 844 975 l 750 751 l 713 739 l 596 739 q 553 739 574 739 q 517 739 532 739 q 492 740 501 739 q 483 740 482 740 m 785 939 l 760 939 q 644 911 688 936 q 576 857 600 886 q 538 779 549 822 l 628 779 l 719 779 l 785 939 z "},"X":{"ha":867,"x_min":24,"x_max":844,"o":"m 40 0 l 24 33 l 239 488 l 24 928 l 40 972 l 278 972 l 413 592 l 442 592 l 482 721 l 707 721 l 729 696 l 629 488 l 796 33 l 775 0 l 550 0 l 442 383 l 413 383 l 278 0 l 40 0 m 244 46 l 385 425 l 469 425 l 581 44 l 742 46 l 586 488 l 674 676 l 513 678 l 469 550 l 385 550 l 244 929 l 72 929 l 281 488 l 72 46 l 244 46 m 483 738 q 486 755 483 738 q 497 798 489 772 q 523 854 506 824 q 570 910 540 885 q 645 953 600 936 q 754 972 690 971 l 844 972 l 750 749 l 713 736 l 596 736 q 553 736 574 736 q 517 736 532 736 q 492 737 501 736 q 483 738 482 738 m 785 939 l 760 939 q 644 911 688 936 q 576 856 600 886 q 538 776 549 819 l 628 776 l 719 776 l 785 939 z "},"p":{"ha":1063,"x_min":0,"x_max":1046,"o":"m 0 972 l 746 972 q 863 947 808 972 q 959 883 918 922 q 1023 797 1000 844 q 1046 707 1046 750 l 0 707 l 0 750 l 983 750 l 983 757 q 968 790 983 763 q 923 848 953 817 q 850 904 893 879 q 753 929 807 929 q 383 928 547 928 l 0 928 l 0 972 m 4 588 q 8 592 3 586 q 18 604 13 597 q 33 621 24 611 l 251 621 l 285 585 l 285 36 l 254 -1 l 36 1 l 4 31 l 4 310 l 4 588 m 53 46 l 236 46 l 236 576 l 53 576 l 53 46 m 1042 621 q 1040 602 1042 621 q 1028 555 1038 583 q 999 492 1018 526 q 947 428 981 458 q 860 377 913 399 q 735 351 808 356 q 542 351 636 351 q 367 351 447 350 l 335 386 l 335 588 l 367 622 l 706 622 q 830 622 769 622 q 938 622 890 622 q 1015 621 986 621 q 1042 621 1043 621 m 385 394 l 625 394 l 729 394 q 858 426 808 397 q 936 488 907 454 q 986 576 969 526 l 685 576 q 574 576 628 576 q 478 576 521 576 q 410 576 436 576 q 385 576 385 576 l 385 394 z "},"q":{"ha":1082,"x_min":19,"x_max":1058,"o":"m 253 486 q 274 588 253 540 q 331 670 294 635 q 417 726 368 706 q 521 746 465 746 q 625 726 576 746 q 710 670 674 706 q 768 588 747 635 q 789 486 789 540 q 768 385 789 432 q 710 302 747 338 q 625 247 674 267 q 521 226 576 226 q 417 247 465 226 q 331 302 368 267 q 274 385 294 338 q 253 486 253 432 m 299 486 q 316 402 299 442 q 364 333 333 363 q 435 288 394 304 q 521 271 475 271 q 608 288 567 271 q 678 333 649 304 q 726 402 708 363 q 743 486 743 442 q 726 570 743 531 q 678 639 708 610 q 608 685 649 668 q 521 701 567 701 q 435 685 475 701 q 364 639 394 668 q 316 570 333 610 q 299 486 299 531 m 19 486 q 59 675 19 586 q 167 830 99 764 q 326 934 235 896 q 521 972 417 972 q 680 947 604 972 q 818 876 756 921 q 862 842 842 861 q 901 801 882 822 l 922 776 q 996 642 969 715 q 1022 486 1022 568 q 983 297 1022 386 q 875 142 943 208 q 716 38 807 76 q 521 0 625 0 q 326 38 417 0 q 167 142 235 76 q 59 297 99 208 q 19 486 19 386 m 67 486 q 103 314 67 394 q 200 174 139 233 q 344 81 261 115 q 521 46 426 46 q 698 81 615 46 q 842 174 781 115 q 940 314 904 233 q 975 486 975 394 q 940 658 975 578 q 842 798 904 739 q 698 892 781 857 q 521 926 615 926 q 344 892 426 926 q 200 798 261 857 q 103 658 139 739 q 67 486 67 578 m 769 1 q 764 6 767 3 l 753 17 q 736 32 746 22 q 785 53 754 36 q 848 96 815 69 q 912 156 881 122 q 964 229 943 190 l 1058 163 l 1058 24 l 1035 1 l 769 1 m 1021 89 l 1021 142 l 976 171 q 972 158 979 168 q 953 134 965 149 q 924 103 940 119 q 891 73 907 88 q 862 49 875 58 q 842 38 849 39 q 872 38 843 38 q 933 38 900 38 q 993 38 965 38 q 1021 38 1021 38 l 1021 89 z "},"r":{"ha":1063,"x_min":0,"x_max":1046,"o":"m 0 972 l 746 972 q 863 947 808 972 q 959 883 918 922 q 1023 797 1000 844 q 1046 707 1046 750 l 0 707 l 0 750 l 983 750 l 983 757 q 968 790 983 763 q 923 848 953 817 q 850 904 893 879 q 753 929 807 929 q 383 928 547 928 l 0 928 l 0 972 m 4 588 q 8 592 3 586 q 18 604 13 597 q 33 621 24 611 l 251 621 l 285 585 l 285 36 l 254 -1 l 36 1 l 4 31 l 4 310 l 4 588 m 53 46 l 236 46 l 236 576 l 53 576 l 53 46 m 1042 621 q 1040 602 1042 621 q 1028 555 1038 583 q 999 492 1018 526 q 947 428 981 458 q 860 377 913 399 q 735 351 808 356 l 1035 54 l 1035 0 l 729 0 l 335 406 l 335 588 l 367 622 l 706 622 q 830 622 769 622 q 938 622 890 622 q 1015 621 986 621 q 1042 621 1043 621 m 385 421 l 754 44 l 974 44 l 625 394 l 729 394 q 858 426 808 397 q 936 488 907 454 q 986 576 969 526 l 685 576 q 574 576 628 576 q 478 576 521 576 q 410 576 436 576 q 385 576 385 576 l 385 421 z "},"s":{"ha":1042,"x_min":13,"x_max":1021,"o":"m 13 264 l 554 264 q 621 280 586 264 q 685 323 656 296 q 733 387 714 350 q 751 465 751 424 l 1021 465 q 981 280 1021 365 q 876 133 940 194 q 730 35 811 71 q 567 0 649 0 l 13 0 l 13 264 m 786 426 q 774 381 786 414 q 733 312 763 347 q 655 249 704 276 q 531 222 606 222 l 58 221 l 57 40 l 518 40 q 667 62 601 40 q 783 119 733 83 q 868 197 833 154 q 925 283 903 240 q 957 364 947 326 q 967 426 967 401 l 786 426 m 1021 706 l 479 706 q 413 690 447 706 q 349 647 378 674 q 301 583 319 619 q 282 504 282 546 l 13 504 q 53 690 13 604 q 158 837 93 775 q 303 934 222 899 q 467 969 385 969 l 1021 969 l 1021 706 m 247 543 q 259 589 247 556 q 300 658 271 622 q 378 720 329 693 q 503 747 428 747 l 975 749 l 976 929 l 515 929 q 365 908 431 929 q 250 851 300 886 q 165 772 200 815 q 108 686 131 729 q 76 605 86 643 q 67 543 67 567 l 247 543 z "},"t":{"ha":1069,"x_min":0,"x_max":1069,"o":"m 0 951 q 3 953 0 950 q 11 961 7 957 l 22 972 l 358 972 l 389 940 l 389 736 l 353 706 l 29 707 l 0 726 l 0 951 m 47 750 l 335 750 l 335 928 l 47 928 l 47 750 m 1069 704 q 1055 703 1069 704 q 1017 703 1040 703 q 965 703 994 703 q 904 703 935 703 q 740 704 832 703 l 722 685 l 721 33 l 689 1 l 471 0 l 439 31 l 440 715 q 467 812 440 765 q 531 894 493 858 q 612 951 569 929 q 688 972 654 972 l 1069 972 l 1069 928 l 715 926 q 615 898 657 922 q 544 840 572 874 q 502 767 515 806 q 489 699 489 729 l 489 44 l 671 43 l 672 683 q 677 705 672 693 q 690 726 682 717 q 709 742 699 736 q 732 749 719 749 l 1069 749 l 1069 704 z "},"u":{"ha":863,"x_min":24,"x_max":835,"o":"m 325 268 l 533 268 l 551 288 l 553 939 l 585 971 l 803 972 l 835 942 l 833 257 q 807 160 833 207 q 742 78 781 114 q 662 22 704 43 q 586 0 619 0 l 272 0 q 197 22 239 0 q 116 78 154 43 q 51 160 78 114 q 25 257 25 207 l 24 942 l 56 972 l 274 971 l 306 939 l 307 288 l 325 268 m 558 46 q 659 74 617 50 q 730 133 701 99 q 772 204 758 167 q 785 274 785 242 l 785 928 l 603 929 l 601 289 q 597 267 601 279 q 583 246 592 256 q 565 230 575 236 q 542 224 554 224 l 317 224 q 294 230 304 224 q 275 246 283 236 q 262 267 267 256 q 257 289 257 279 l 256 929 l 74 928 l 74 274 q 87 204 74 242 q 128 133 100 167 q 199 74 157 99 q 300 46 242 50 l 558 46 z "},"v":{"ha":868,"x_min":14,"x_max":844,"o":"m 65 929 l 394 42 l 471 43 l 681 679 l 513 681 l 469 554 l 385 554 l 244 929 l 65 929 m 278 975 l 413 596 l 442 596 l 482 724 l 707 724 l 729 699 l 503 25 l 478 0 l 390 0 l 361 25 l 14 947 l 40 975 l 278 975 m 483 740 q 486 758 483 740 q 497 801 489 775 q 523 857 506 826 q 570 913 540 888 q 645 956 600 939 q 754 975 690 974 l 844 975 l 750 751 l 713 739 l 596 739 q 553 739 574 739 q 517 739 532 739 q 492 740 501 739 q 483 740 482 740 m 785 939 l 760 939 q 644 911 688 936 q 576 857 600 886 q 538 779 549 822 l 628 779 l 719 779 l 785 939 z "},"w":{"ha":1056,"x_min":25,"x_max":1036,"o":"m 76 919 l 76 42 l 153 43 l 483 413 l 482 524 l 253 526 l 253 919 l 76 919 m 271 965 l 300 931 l 301 565 l 515 564 l 521 557 l 521 394 l 171 0 l 50 0 l 25 25 l 25 938 l 51 965 l 271 965 m 808 919 l 808 526 l 579 524 l 578 413 l 908 43 l 985 42 l 985 919 l 808 919 m 1010 965 l 1036 938 l 1036 25 l 1011 0 l 890 0 l 540 394 l 540 557 l 546 564 l 760 565 l 761 931 l 790 965 l 1010 965 z "},"x":{"ha":867,"x_min":24,"x_max":844,"o":"m 40 0 l 24 33 l 239 488 l 24 928 l 40 972 l 278 972 l 413 592 l 442 592 l 482 721 l 707 721 l 729 696 l 629 488 l 796 33 l 775 0 l 550 0 l 442 383 l 413 383 l 278 0 l 40 0 m 244 46 l 385 425 l 469 425 l 581 44 l 742 46 l 586 488 l 674 676 l 513 678 l 469 550 l 385 550 l 244 929 l 72 929 l 281 488 l 72 46 l 244 46 m 483 738 q 486 755 483 738 q 497 798 489 772 q 523 854 506 824 q 570 910 540 885 q 645 953 600 936 q 754 972 690 971 l 844 972 l 750 749 l 713 736 l 596 736 q 553 736 574 736 q 517 736 532 736 q 492 737 501 736 q 483 738 482 738 m 785 939 l 760 939 q 644 911 688 936 q 576 856 600 886 q 538 776 549 819 l 628 776 l 719 776 l 785 939 z "},"y":{"ha":876,"x_min":24,"x_max":844,"o":"m 72 929 l 319 417 l 319 42 l 546 43 l 546 415 l 674 679 l 513 681 l 469 554 l 385 554 l 244 929 l 72 929 m 278 975 l 413 596 l 442 596 l 482 724 l 707 724 l 729 699 l 589 414 l 589 0 l 279 0 l 279 414 l 24 928 l 40 975 l 278 975 m 483 740 q 486 758 483 740 q 497 801 489 775 q 523 857 506 826 q 570 913 540 888 q 645 956 600 939 q 754 975 690 974 l 844 975 l 750 751 l 713 739 l 596 739 q 553 739 574 739 q 517 739 532 739 q 492 740 501 739 q 483 740 482 740 m 785 939 l 760 939 q 644 911 688 936 q 576 857 600 886 q 538 779 549 822 l 628 779 l 719 779 l 785 939 z "},"o":{"ha":1028,"x_min":13,"x_max":1014,"o":"m 13 488 q 52 678 13 589 q 159 835 92 768 q 317 940 226 901 q 513 979 408 979 q 708 940 617 979 q 867 835 800 901 q 974 678 935 768 q 1014 488 1014 589 q 974 297 1014 386 q 867 140 935 207 q 708 35 800 74 q 513 -3 617 -3 q 317 35 408 -3 q 159 140 226 74 q 52 297 92 207 q 13 488 13 386 m 54 479 q 90 306 54 388 q 188 163 126 224 q 333 66 250 101 q 511 31 417 31 q 690 66 606 31 q 836 163 774 101 q 935 306 899 224 q 971 479 971 388 q 935 654 971 572 q 836 797 899 736 q 690 894 774 858 q 511 929 606 929 q 333 894 417 929 q 188 797 250 858 q 90 654 126 736 q 54 479 54 572 m 246 479 q 267 581 246 533 q 324 663 288 628 q 408 719 360 699 q 511 740 457 740 q 615 719 565 740 q 700 663 664 699 q 758 581 736 628 q 779 479 779 533 q 758 378 779 425 q 700 295 736 331 q 615 240 664 260 q 511 219 565 219 q 408 240 457 219 q 324 295 360 260 q 267 378 288 331 q 246 479 246 425 m 293 479 q 310 396 293 435 q 358 328 328 357 q 427 282 388 299 q 511 265 467 265 q 597 282 557 265 q 667 328 636 299 q 715 396 697 357 q 732 479 732 435 q 715 563 732 524 q 667 631 697 601 q 597 677 636 660 q 511 694 557 694 q 427 677 467 694 q 358 631 388 660 q 310 563 328 601 q 293 479 293 524 z "},"a":{"ha":863,"x_min":14,"x_max":844,"o":"m 244 46 l 385 421 l 469 421 l 513 294 l 681 296 l 471 932 l 394 933 l 65 46 l 244 46 m 40 0 l 14 28 l 361 950 l 390 975 l 478 975 l 503 950 l 729 276 l 707 251 l 482 251 l 442 379 l 413 379 l 278 0 l 40 0 m 372 235 q 385 235 371 235 q 423 235 399 235 q 478 236 447 236 q 540 236 508 236 l 713 236 l 750 224 l 844 0 l 643 0 q 522 23 571 4 q 444 67 474 42 q 399 123 414 93 q 378 177 385 153 q 372 218 372 201 q 372 235 372 235 m 719 196 q 706 196 719 196 q 671 196 693 196 q 622 196 649 196 q 565 196 594 196 l 413 196 q 454 118 425 153 q 526 64 479 89 q 649 36 572 39 l 785 36 l 719 196 z "},"b":{"ha":1085,"x_min":29,"x_max":1046,"o":"m 1042 621 q 1040 602 1042 621 q 1028 555 1038 583 q 999 492 1018 526 q 947 428 981 458 q 860 377 913 399 q 735 351 808 356 q 885 294 818 333 q 940 255 913 278 q 988 203 967 232 q 1022 137 1008 174 q 1035 54 1035 100 l 1035 0 l 729 0 l 29 -1 l 29 622 l 318 622 l 321 358 l 547 358 q 500 369 525 360 q 451 394 478 378 q 396 439 424 410 q 368 474 381 449 q 349 529 357 493 q 340 622 340 565 l 367 622 l 706 622 q 830 622 769 622 q 938 622 890 622 q 1015 621 986 621 q 1042 621 1043 621 m 385 576 q 394 519 385 544 q 417 476 403 494 q 450 443 432 457 q 488 421 468 429 q 592 394 533 400 l 592 319 l 386 317 l 275 317 l 274 578 l 79 576 l 79 44 l 754 44 l 988 44 q 971 117 988 82 q 927 183 954 153 q 867 239 900 214 q 799 282 833 264 q 734 310 765 300 q 681 319 703 319 l 681 394 q 842 422 782 394 q 935 485 903 450 q 986 576 972 525 l 685 576 q 574 576 628 576 q 478 576 521 576 q 410 576 436 576 q 385 576 385 576 m 29 972 l 746 972 q 863 947 808 972 q 959 883 918 922 q 1023 797 1000 844 q 1046 707 1046 750 l 29 707 l 29 972 m 753 929 q 493 928 619 928 l 79 928 l 79 750 l 983 750 l 983 757 q 968 790 983 763 q 923 848 953 817 q 850 904 893 879 q 753 929 807 929 z "},"c":{"ha":868,"x_min":10,"x_max":854,"o":"m 854 0 l 467 0 q 303 38 385 0 q 158 141 222 75 q 53 294 93 207 q 13 482 13 382 q 40 644 10 558 q 130 802 71 731 q 274 921 189 874 q 464 968 358 968 l 853 968 l 853 700 l 479 700 q 404 681 440 700 q 341 633 368 663 q 298 563 314 603 q 282 482 282 524 q 301 401 282 440 q 349 331 319 361 q 413 283 378 301 q 479 264 447 264 l 854 264 l 854 0 m 457 924 q 339 897 407 924 q 208 815 271 869 q 102 679 146 761 q 58 488 58 597 q 106 288 61 379 q 153 210 124 249 q 228 137 183 171 q 333 78 272 103 q 474 40 393 53 l 810 40 l 808 221 l 461 222 q 333 277 378 235 q 267 365 288 319 q 239 485 242 419 q 256 565 239 521 q 303 649 272 610 q 374 716 333 689 q 464 743 415 743 l 810 744 l 808 924 l 457 924 z "},"d":{"ha":885,"x_min":19,"x_max":864,"o":"m 19 972 l 289 972 l 289 286 l 19 286 l 19 972 m 64 331 l 246 331 l 246 929 l 64 929 l 64 331 m 19 264 l 394 264 q 475 283 439 264 q 538 331 511 301 q 578 401 564 361 q 592 482 592 440 q 578 563 592 524 q 538 634 564 603 q 475 684 511 665 q 394 703 439 703 l 325 703 l 325 972 l 410 972 q 600 924 515 972 q 744 804 685 876 q 833 645 803 732 q 861 482 864 558 q 821 294 861 382 q 716 141 781 207 q 570 38 651 75 q 407 0 489 0 l 19 0 l 19 264 m 369 926 l 368 747 l 410 747 q 507 719 465 747 q 577 651 549 692 q 620 566 606 611 q 635 485 635 521 q 613 364 636 419 q 587 317 603 340 q 547 274 571 294 q 490 240 522 254 q 413 222 457 226 l 65 221 l 64 40 l 400 40 q 537 78 478 53 q 640 137 596 103 q 715 210 685 171 q 764 288 744 249 q 815 488 810 379 q 772 680 815 597 q 665 817 728 763 q 535 899 603 872 q 417 926 467 926 l 369 926 z "},"e":{"ha":951,"x_min":18,"x_max":925,"o":"m 61 692 q 55 695 61 690 q 40 706 49 700 q 18 721 31 711 l 18 940 l 61 974 l 882 974 l 925 943 l 925 724 l 882 692 l 471 692 l 61 692 m 882 742 l 882 925 l 61 925 l 61 742 l 882 742 m 831 619 q 798 619 831 619 q 712 620 765 619 q 589 621 658 621 q 447 621 519 621 l 61 621 l 18 586 l 18 31 l 61 -3 l 882 -3 l 925 33 l 925 213 l 882 258 l 340 258 l 340 350 l 535 350 q 656 376 606 354 q 738 427 706 397 q 790 491 771 457 q 817 553 808 525 q 828 601 826 582 q 831 619 831 619 m 61 575 q 92 575 61 575 q 172 575 122 575 q 287 575 222 575 q 418 575 351 575 l 776 575 q 728 486 760 525 q 652 424 700 453 q 529 393 604 396 l 297 393 l 297 213 l 882 213 l 882 42 l 61 42 l 61 575 z "},"f":{"ha":946,"x_min":18,"x_max":925,"o":"m 61 694 q 55 698 61 693 q 40 708 49 703 q 18 724 31 714 l 18 943 l 61 976 l 882 976 l 925 946 l 925 726 l 882 694 l 471 694 l 61 694 m 882 744 l 882 928 l 61 928 l 61 744 l 882 744 m 831 622 q 798 622 831 622 q 712 623 765 622 q 589 624 658 624 q 447 624 519 624 l 61 624 l 18 589 l 18 33 l 61 0 l 299 0 l 342 32 l 340 353 l 535 353 q 656 378 606 357 q 738 430 706 400 q 790 494 771 460 q 817 556 808 528 q 828 603 826 585 q 831 622 831 622 m 61 578 q 92 578 61 578 q 172 578 122 578 q 287 578 222 578 q 418 578 351 578 l 776 578 q 728 489 760 528 q 652 427 700 456 q 529 396 604 399 l 297 396 l 299 44 l 61 44 l 61 578 z "},"g":{"ha":876,"x_min":10,"x_max":854,"o":"m 378 513 q 378 496 378 513 q 384 455 378 479 q 405 401 390 431 q 449 345 419 371 q 528 301 479 319 q 649 278 576 282 l 850 278 l 756 501 l 718 514 l 546 514 q 483 514 514 514 q 428 513 453 514 q 390 513 404 513 q 378 513 376 513 m 790 314 l 654 314 q 531 342 578 317 q 460 396 485 367 q 418 474 431 431 l 571 474 q 627 474 600 474 q 676 474 654 474 q 712 474 699 474 q 725 474 725 474 l 790 314 m 854 0 l 467 0 q 303 38 385 0 q 158 141 222 75 q 53 294 93 207 q 13 482 13 382 q 40 644 10 558 q 130 802 71 731 q 274 921 189 874 q 464 968 358 968 l 853 968 l 853 700 l 479 700 q 404 681 440 700 q 341 633 368 663 q 298 563 314 603 q 282 482 282 524 q 301 401 282 440 q 349 331 319 361 q 413 283 378 301 q 479 264 447 264 l 854 264 l 854 0 m 457 924 q 339 897 407 924 q 208 815 271 869 q 102 679 146 761 q 58 488 58 597 q 106 288 61 379 q 153 210 124 249 q 228 137 183 171 q 333 78 272 103 q 474 40 393 53 l 810 40 l 808 221 l 461 222 q 333 277 378 235 q 267 365 288 319 q 239 485 242 419 q 256 565 239 521 q 303 649 272 610 q 374 716 333 689 q 464 743 415 743 l 810 744 l 808 924 l 457 924 z "},"h":{"ha":876,"x_min":19,"x_max":857,"o":"m 857 972 l 857 0 l 590 0 l 590 353 l 288 353 l 288 0 l 19 0 l 19 618 l 590 618 l 590 972 l 857 972 m 633 928 l 633 576 l 63 576 l 63 43 l 243 43 l 243 397 l 633 397 l 633 44 l 814 44 l 814 928 l 633 928 m 21 704 q 20 724 21 704 q 23 773 19 743 q 35 838 26 803 q 65 902 44 872 q 121 951 86 932 q 208 971 156 971 l 286 971 l 286 739 l 249 703 l 133 703 q 92 703 113 703 q 55 703 71 703 q 29 703 39 703 q 21 704 19 704 m 244 935 l 214 935 q 163 926 185 935 q 126 904 142 918 q 99 874 110 890 q 82 839 89 857 q 64 743 67 796 l 154 743 l 244 743 l 244 935 z "},"i":{"ha":307,"x_min":14,"x_max":290,"o":"m 14 972 l 290 972 l 290 0 l 14 0 l 14 972 m 58 46 l 247 46 l 247 929 l 58 929 l 58 46 z "},"j":{"ha":664,"x_min":15,"x_max":644,"o":"m 42 269 l 222 269 q 344 268 279 269 l 363 288 l 364 939 l 396 968 l 614 968 l 644 942 l 644 257 q 618 160 644 207 q 553 78 592 114 q 473 22 515 43 q 397 0 431 0 l 39 0 l 15 24 l 15 44 l 369 46 q 470 74 428 50 q 541 133 513 99 q 583 204 569 167 q 596 274 596 242 l 596 922 l 414 922 l 413 289 q 408 267 413 279 q 394 246 403 256 q 376 230 386 236 q 353 224 365 224 l 61 224 l 61 44 l 15 44 l 15 243 l 42 269 z "},"k":{"ha":885,"x_min":19,"x_max":885,"o":"m 19 972 l 289 972 l 289 703 l 19 703 l 19 972 m 64 747 l 246 747 l 246 929 l 64 929 l 64 747 m 885 972 l 675 549 l 675 444 l 885 0 l 590 0 l 396 353 l 288 353 l 288 0 l 19 0 l 19 618 l 396 618 l 590 972 l 885 972 m 619 928 l 425 576 l 63 576 l 63 43 l 243 43 l 243 397 l 425 397 l 619 44 l 808 44 l 621 444 l 619 549 l 808 928 l 619 928 z "},"l":{"ha":667,"x_min":15,"x_max":644,"o":"m 644 243 l 644 44 l 599 44 l 599 224 l 307 224 q 284 230 294 224 q 265 246 274 236 q 252 267 257 256 q 247 289 247 279 l 246 922 l 64 922 l 64 274 q 77 204 64 242 q 119 133 90 167 q 190 74 147 99 q 290 46 232 50 l 644 44 l 644 24 l 621 0 l 263 0 q 187 22 229 0 q 106 78 144 43 q 42 160 68 114 q 15 257 15 207 l 15 942 l 46 968 l 264 968 l 296 939 l 297 288 l 315 268 q 438 269 381 269 l 618 269 l 644 243 z "},"m":{"ha":1042,"x_min":14,"x_max":1025,"o":"m 242 46 l 242 439 l 471 442 l 472 553 l 142 922 l 65 924 l 65 46 l 242 46 m 40 0 l 14 28 l 14 940 l 39 965 l 160 965 l 510 571 l 510 408 l 504 401 l 290 400 l 289 35 l 260 0 l 40 0 m 974 46 l 974 924 l 897 922 l 567 553 l 568 442 l 797 439 l 797 46 l 974 46 m 779 0 l 750 35 l 749 400 l 535 401 l 529 408 l 529 571 l 879 965 l 1000 965 l 1025 940 l 1025 28 l 999 0 l 779 0 z "},"n":{"ha":1050,"x_min":14,"x_max":1036,"o":"m 65 46 l 65 924 l 142 922 l 472 553 l 471 442 l 242 439 l 242 46 l 65 46 m 260 0 l 289 35 l 290 400 l 504 401 l 510 408 l 511 571 l 160 965 l 39 965 l 14 940 l 14 28 l 40 0 l 260 0 m 536 554 l 543 563 l 761 564 l 763 931 l 797 972 l 1003 971 l 1036 935 l 1036 25 l 1011 0 l 892 0 l 535 404 l 536 554 m 579 413 q 631 354 604 385 q 683 295 654 328 q 744 228 713 263 q 910 43 817 146 l 988 43 l 988 928 l 810 926 l 811 531 l 803 524 l 579 522 l 579 467 q 578 429 579 446 q 579 413 578 413 z "},"Z":{"ha":978,"x_min":31,"x_max":954,"o":"m 74 754 l 447 754 l 450 538 l 556 536 l 907 850 l 908 922 l 74 922 l 74 754 m 31 946 l 57 971 l 924 971 l 947 947 l 947 832 l 572 499 l 418 500 l 413 506 l 411 708 l 64 710 l 31 738 l 31 946 m 557 475 l 565 468 l 567 261 l 914 260 l 954 226 l 953 32 l 918 0 l 54 0 l 31 24 l 31 138 l 414 476 l 557 475 m 422 435 q 407 421 422 435 q 367 385 392 407 q 310 334 342 363 q 246 276 279 306 q 71 119 169 207 l 71 46 l 913 46 l 911 215 l 535 214 l 528 222 l 526 435 l 422 435 z "},"z":{"ha":978,"x_min":31,"x_max":954,"o":"m 74 754 l 447 754 l 450 538 l 556 536 l 907 850 l 908 922 l 74 922 l 74 754 m 31 946 l 57 971 l 924 971 l 947 947 l 947 832 l 572 499 l 418 500 l 413 506 l 411 708 l 64 710 l 31 738 l 31 946 m 557 475 l 565 468 l 567 261 l 914 260 l 954 226 l 953 32 l 918 0 l 54 0 l 31 24 l 31 138 l 414 476 l 557 475 m 422 435 q 407 421 422 435 q 367 385 392 407 q 310 334 342 363 q 246 276 279 306 q 71 119 169 207 l 71 46 l 913 46 l 911 215 l 535 214 l 528 222 l 526 435 l 422 435 z "},"N":{"ha":1050,"x_min":14,"x_max":1036,"o":"m 65 46 l 65 924 l 142 922 l 472 553 l 471 442 l 242 439 l 242 46 l 65 46 m 260 0 l 289 35 l 290 400 l 504 401 l 510 408 l 511 571 l 160 965 l 39 965 l 14 940 l 14 28 l 40 0 l 260 0 m 536 554 l 543 563 l 761 564 l 763 931 l 797 972 l 1003 971 l 1036 935 l 1036 25 l 1011 0 l 892 0 l 535 404 l 536 554 m 579 413 q 631 354 604 385 q 683 295 654 328 q 744 228 713 263 q 910 43 817 146 l 988 43 l 988 928 l 810 926 l 811 531 l 803 524 l 579 522 l 579 467 q 578 429 579 446 q 579 413 578 413 z "},"O":{"ha":1028,"x_min":13,"x_max":1014,"o":"m 13 488 q 52 678 13 589 q 159 835 92 768 q 317 940 226 901 q 513 979 408 979 q 708 940 617 979 q 867 835 800 901 q 974 678 935 768 q 1014 488 1014 589 q 974 297 1014 386 q 867 140 935 207 q 708 35 800 74 q 513 -3 617 -3 q 317 35 408 -3 q 159 140 226 74 q 52 297 92 207 q 13 488 13 386 m 54 479 q 90 306 54 388 q 188 163 126 224 q 333 66 250 101 q 511 31 417 31 q 690 66 606 31 q 836 163 774 101 q 935 306 899 224 q 971 479 971 388 q 935 654 971 572 q 836 797 899 736 q 690 894 774 858 q 511 929 606 929 q 333 894 417 929 q 188 797 250 858 q 90 654 126 736 q 54 479 54 572 m 246 479 q 267 581 246 533 q 324 663 288 628 q 408 719 360 699 q 511 740 457 740 q 615 719 565 740 q 700 663 664 699 q 758 581 736 628 q 779 479 779 533 q 758 378 779 425 q 700 295 736 331 q 615 240 664 260 q 511 219 565 219 q 408 240 457 219 q 324 295 360 260 q 267 378 288 331 q 246 479 246 425 m 293 479 q 310 396 293 435 q 358 328 328 357 q 427 282 388 299 q 511 265 467 265 q 597 282 557 265 q 667 328 636 299 q 715 396 697 357 q 732 479 732 435 q 715 563 732 524 q 667 631 697 601 q 597 677 636 660 q 511 694 557 694 q 427 677 467 694 q 358 631 388 660 q 310 563 328 601 q 293 479 293 524 z "}}}
